<?xml version="1.0" encoding="utf-8"?>
<!-- Generator: Adobe Illustrator 16.0.0, SVG Export Plug-In . SVG Version: 6.00 Build 0)  -->
<!DOCTYPE svg PUBLIC "-//W3C//DTD SVG 1.1//EN" "http://www.w3.org/Graphics/SVG/1.1/DTD/svg11.dtd">
<svg version="1.1" id="Layer_1" xmlns="http://www.w3.org/2000/svg" xmlns:xlink="http://www.w3.org/1999/xlink" x="0px" y="0px"
	 width="252.991px" height="164.519px" viewBox="0 0.141 252.991 164.519" enable-background="new 0 0.141 252.991 164.519"
	 xml:space="preserve">
<g>
	<g>
		<path fill="#9D705B" d="M118.51,110.878h1.849v23.645h-1.849v1.776h10.553v-9.719h-2.104v7.942h-4.497v-10.915h3.88v-1.741h-3.88
			v-10.988h4.497v7.907h2.104v-9.684H118.51V110.878z M79.1,110.588h-0.073c-0.399-1.087-1.378-1.849-3.228-1.849
			c-2.647,0-4.569,1.341-4.569,4.788v18.349c0,2.792,1.378,4.787,4.858,4.787c2.865,0,4.968-1.343,4.968-4.787v-5.296h-2.104v5.512
			c0,1.633-0.796,2.829-2.865,2.829c-1.595,0-2.755-0.798-2.755-2.829V113.96c0-1.994,0.798-3.445,2.829-3.445
			c1.631,0,2.792,0.98,2.792,3.445v4.825h2.104v-9.684h-1.74L79.1,110.588z M124.53,36.544l-17.963-11.715l15.027,15.818
			C121.921,38.886,123.021,37.396,124.53,36.544z M-0.015,110.878h1.886v23.645h-1.886v1.776h5.838v-1.776H3.974v-23.645H8.87
			v23.645H7.02v1.776h5.839v-1.776h-1.886v-23.645h1.886v-1.776H-0.015V110.878z M25.183,110.878h1.851v23.645h-1.851v1.776h10.553
			v-9.719h-2.104v7.942h-4.497v-10.915h3.879v-1.741h-3.879v-10.988h4.497v7.907h2.104v-9.684H25.183V110.878z M55.677,109.102
			h-7.216v1.776h1.849v23.645h-1.886v1.776h6.962v-1.776h-2.972v-11.568h3.263c2.176,0,3.771-1.451,3.771-5.149v-3.554
			C59.449,111.276,58.397,109.102,55.677,109.102z M57.346,118.168c0,1.74-0.58,3.009-2.067,3.009h-2.865v-10.299h2.792
			c1.233,0,2.139,0.835,2.139,3.011V118.168z M93.312,110.878h1.885v23.645h-1.885v1.776h5.838v-1.776H97.3v-23.645h4.896v23.645
			h-1.849v1.776h5.838v-1.776h-1.886v-23.645h1.886v-1.776H93.312V110.878L93.312,110.878z M195.45,130.822l0.362-6.961v-12.983
			h1.85v-1.776h-5.838v1.776h1.884v23.645h-1.703v1.776h3.735l6.092-21.648l-0.361,7.434v12.438h-1.85v1.776h5.838v-1.776h-1.886
			v-23.645h1.886v-1.776h-3.916L195.45,130.822z M225.652,121.648c1.813-0.073,3.156-1.16,3.156-3.808v-3.59
			c0-2.973-1.124-5.149-3.953-5.149h-7.071v1.776h1.885v23.645h-1.885v1.776h7.071c2.428,0,4.17-1.378,4.17-4.932v-4.642
			C229.025,123.861,228.083,121.758,225.652,121.648z M221.772,110.878h2.937c1.161,0,1.996,0.8,1.996,2.974v4.063
			c0,1.667-0.69,2.901-2.467,2.901h-2.466V110.878z M226.922,131.729c0,1.634-0.798,2.794-2.9,2.794h-2.25v-12.038h2.25
			c1.666,0,2.9,1.232,2.9,4.46V131.729z M165.356,118.748h2.102v-7.87h4.098v23.645h-2.573v1.776h7.254v-1.776h-2.575v-23.645h4.098
			v7.87h2.104v-9.646h-14.506L165.356,118.748L165.356,118.748z M251.107,134.522l-3.446-25.422h-2.972l-3.447,25.422h-1.884v1.776
			h5.837v-1.776h-1.849l1.124-8.522h3.407l1.125,8.522h-1.849v1.776h5.837v-1.776H251.107z M244.579,124.44l0.87-6.636l0.726-7.181
			l0.727,7.181l0.869,6.636H244.579z M145.014,110.878h1.814v-1.776h-5.802v1.776h1.886v23.645h-1.886v1.776h5.802v-1.776h-1.814
			V110.878z M133.245,40.298l32.019-37.356l-35.853,33.165C131.302,36.761,132.755,38.336,133.245,40.298z M147.155,122.881
			l5.258-12.003h2.03v-1.776h-6.055v1.776h1.776l-5.113,12.186l5.62,11.459h-1.667v1.776h6.02v-1.776h-2.031L147.155,122.881z
			 M127.459,38.86c-1.592,0-2.882,1.29-2.882,2.882c0,1.591,1.29,2.881,2.882,2.881c1.591,0,2.881-1.29,2.881-2.881
			S129.05,38.86,127.459,38.86z"/>
	</g>
</g>
<g>
	<g>
		<path fill="#505461" d="M64.284,152.685c-0.696,0-1.322,0.203-1.876,0.61c-0.708,0.526-1.31,1.282-1.806,2.267
			c-0.496,0.984-0.744,1.943-0.744,2.877c0,0.561,0.117,1.023,0.35,1.39c0.233,0.366,0.607,0.548,1.12,0.548
			c0.968,0,2.155-0.55,3.559-1.654l-0.186-0.514c-0.956,0.804-1.779,1.205-2.47,1.205c-0.29,0-0.513-0.119-0.672-0.354
			c-0.219-0.307-0.327-0.739-0.327-1.299c0-0.76,0.129-1.519,0.39-2.271c0.259-0.755,0.531-1.263,0.818-1.526
			c0.286-0.262,0.574-0.395,0.863-0.395c0.225,0,0.504,0.103,0.842,0.302c0.325,0.188,0.589,0.283,0.796,0.283
			c0.213,0,0.377-0.056,0.497-0.172c0.118-0.115,0.177-0.263,0.177-0.447c0-0.235-0.112-0.437-0.336-0.602
			C65.05,152.768,64.719,152.685,64.284,152.685z M88.583,155.915l-0.441,0.01c0.96-0.619,1.44-1.313,1.44-2.079
			c0-0.786-0.432-1.18-1.292-1.18c-1.133,0-2.124,0.65-2.97,1.949c-0.847,1.296-1.271,2.637-1.271,4.019
			c0,1.162,0.546,1.742,1.638,1.742c0.879,0,1.78-0.349,2.7-1.048c0.92-0.698,1.381-1.447,1.381-2.244
			C89.767,156.305,89.372,155.915,88.583,155.915z M87.609,153.313c0.465,0,0.697,0.28,0.697,0.841c0,0.892-0.876,1.714-2.629,2.47
			C86.053,154.418,86.696,153.313,87.609,153.313z M87.636,158.983c-0.447,0.457-0.883,0.686-1.307,0.686
			c-0.294,0-0.501-0.105-0.622-0.318c-0.12-0.214-0.18-0.585-0.18-1.116c0-0.319,0.026-0.643,0.079-0.975
			c0.953-0.531,1.617-0.796,1.994-0.796c0.47,0,0.706,0.31,0.706,0.93C88.306,157.995,88.083,158.525,87.636,158.983z
			 M-0.002,155.972h23.897v-0.822H-0.002V155.972z M38.941,159.413c-0.171,0-0.256-0.117-0.256-0.348
			c0-0.247,0.245-1.268,0.735-3.063l0.833-3.088h-1.257c-0.239,1.093-0.463,1.854-0.673,2.283c-0.208,0.429-0.567,0.83-1.077,1.206
			c-0.51,0.376-0.915,0.564-1.215,0.564c-0.307,0-0.46-0.112-0.46-0.338c0-0.063,0.017-0.164,0.053-0.302l0.316-1.319
			c0.206-0.818,0.309-1.381,0.309-1.686c0-0.428-0.163-0.64-0.487-0.64c-0.631,0-1.564,0.574-2.803,1.727l0.39,0.31
			c0.655-0.637,1.107-0.956,1.355-0.956c0.13,0,0.194,0.084,0.194,0.25c0,0.141-0.071,0.487-0.213,1.036
			c-0.325,1.225-0.487,1.959-0.487,2.199c0,0.516,0.277,0.773,0.832,0.773c0.713,0,1.725-0.546,3.035-1.636l-0.488,2.034
			c-0.123,0.483-0.187,0.879-0.187,1.188c0,0.259,0.073,0.463,0.217,0.609c0.145,0.147,0.3,0.223,0.465,0.223
			c0.567,0,1.441-0.617,2.622-1.852l-0.291-0.327C39.641,159.029,39.154,159.413,38.941,159.413z M52.471,159.041
			c-0.206,0.123-0.356,0.187-0.452,0.187c-0.147,0-0.222-0.092-0.222-0.275c0-0.183,0.066-0.591,0.195-1.222
			c0.237-1.162,0.487-2.188,0.752-3.079l0.665-2.24l-0.584,0.124l-0.212,0.344c-0.195-0.022-0.387-0.035-0.575-0.035
			c-0.75,0-1.363,0.113-1.841,0.337c-0.62,0.295-1.21,0.755-1.77,1.381c-0.561,0.627-1.008,1.321-1.341,2.089
			c-0.334,0.767-0.5,1.464-0.5,2.089c0,0.526,0.124,0.95,0.372,1.274c0.183,0.244,0.446,0.363,0.788,0.363
			c0.36,0,0.755-0.136,1.186-0.406c0.702-0.437,1.307-0.959,1.815-1.567l-0.354,1.204c-0.047,0.154-0.071,0.275-0.071,0.363
			c0,0.136,0.038,0.238,0.116,0.31c0.077,0.07,0.192,0.105,0.345,0.105c0.212,0,0.431-0.04,0.655-0.123
			c0.343-0.123,0.703-0.315,1.081-0.575c0.188-0.129,0.62-0.501,1.292-1.116l-0.283-0.346
			C53.188,158.551,52.837,158.823,52.471,159.041z M50.992,156.65c-0.218,0.827-0.56,1.46-1.026,1.898
			c-0.467,0.44-0.903,0.661-1.31,0.661c-0.218,0-0.396-0.089-0.532-0.267c-0.136-0.177-0.203-0.465-0.203-0.867
			c0-0.757,0.169-1.514,0.509-2.271s0.706-1.283,1.102-1.574c0.396-0.292,0.859-0.438,1.391-0.438c0.218,0,0.487,0.033,0.805,0.098
			L50.992,156.65z M75.83,152.685c-1.327,0-2.438,0.652-3.328,1.956c-0.708,1.051-1.062,2.195-1.062,3.435
			c0,0.714,0.193,1.278,0.58,1.691c0.387,0.412,0.895,0.619,1.527,0.619c1.027,0,2.001-0.521,2.921-1.563
			c0.921-1.043,1.381-2.218,1.381-3.527c0-0.82-0.191-1.46-0.575-1.921C76.889,152.915,76.408,152.685,75.83,152.685z
			 M75.555,158.774c-0.407,0.615-0.858,0.921-1.354,0.921c-0.354,0-0.637-0.161-0.85-0.487c-0.289-0.442-0.433-1.048-0.433-1.813
			c0-1.264,0.235-2.252,0.704-2.97c0.468-0.718,0.954-1.077,1.456-1.077c0.359,0,0.659,0.188,0.898,0.567
			c0.239,0.377,0.358,1.01,0.358,1.893C76.334,156.99,76.075,157.978,75.555,158.774z M183.366,148.108
			c-0.283,0-1.019-0.105-2.204-0.319c-0.319-0.059-0.575-0.088-0.771-0.088c-0.685,0-1.456,0.305-2.311,0.91
			c-0.856,0.608-1.487,1.833-1.894,3.671l-1.046,4.68c-0.159,0.727-0.239,1.289-0.239,1.69c0,0.479,0.156,0.882,0.468,1.213
			c0.314,0.329,0.754,0.495,1.319,0.495c1.092,0,2.087-0.594,2.984-1.782c0.896-1.187,1.346-2.479,1.346-3.877
			c0-0.589-0.114-1.067-0.342-1.436c-0.228-0.369-0.57-0.554-1.031-0.554c-0.826,0-1.703,0.507-2.63,1.522l0.726-3.107
			c0.23-1.009,0.427-1.654,0.59-1.938c0.16-0.282,0.388-0.424,0.677-0.424c0.16,0,0.443,0.034,0.851,0.105
			c1.28,0.23,2.153,0.345,2.62,0.345c0.365,0,0.693-0.077,0.981-0.233c0.291-0.156,0.611-0.54,0.966-1.147l-0.266-0.194
			C183.844,147.952,183.579,148.108,183.366,148.108z M177.669,154.283c0.429-0.393,0.793-0.589,1.095-0.589
			c0.282,0,0.495,0.149,0.636,0.446c0.142,0.298,0.213,0.63,0.213,0.995c0,0.953-0.249,1.967-0.748,3.035
			c-0.499,1.071-1.093,1.604-1.783,1.604c-0.256,0-0.485-0.106-0.695-0.318c-0.209-0.213-0.314-0.472-0.314-0.776
			c0-0.737,0.159-1.558,0.478-2.458C176.868,155.321,177.241,154.674,177.669,154.283z M157.137,17.273
			c5.301,6.465,8.483,14.733,8.483,23.745c0,20.703-16.782,37.484-37.484,37.484c-20.702,0-37.483-16.782-37.483-37.484
			c0-20.702,16.781-37.485,37.483-37.485c8.716,0,16.732,2.984,23.098,7.974l2.736-2.053c-7.035-5.764-16.028-9.226-25.834-9.226
			c-22.527,0-40.79,18.263-40.79,40.79c0,22.528,18.262,40.791,40.79,40.791c22.528,0,40.79-18.263,40.79-40.791
			c0-10.098-3.677-19.332-9.755-26.455L157.137,17.273z M193.098,159.041c-0.207,0.123-0.357,0.187-0.452,0.187
			c-0.147,0-0.222-0.092-0.222-0.275c0-0.183,0.066-0.591,0.194-1.222c0.236-1.162,0.488-2.188,0.753-3.079l0.665-2.24l-0.585,0.124
			l-0.213,0.344c-0.194-0.022-0.386-0.035-0.574-0.035c-0.75,0-1.363,0.113-1.841,0.337c-0.62,0.295-1.21,0.755-1.771,1.381
			c-0.562,0.627-1.008,1.321-1.341,2.089c-0.333,0.767-0.501,1.464-0.501,2.089c0,0.526,0.124,0.95,0.372,1.274
			c0.184,0.244,0.445,0.363,0.788,0.363c0.36,0,0.755-0.136,1.187-0.406c0.702-0.437,1.307-0.959,1.814-1.567l-0.354,1.204
			c-0.048,0.154-0.071,0.275-0.071,0.363c0,0.136,0.039,0.238,0.115,0.31c0.077,0.07,0.191,0.105,0.346,0.105
			c0.213,0,0.431-0.04,0.655-0.123c0.342-0.123,0.703-0.315,1.079-0.575c0.189-0.129,0.62-0.501,1.293-1.116l-0.283-0.346
			C193.815,158.551,193.464,158.823,193.098,159.041z M191.62,156.65c-0.219,0.827-0.562,1.46-1.027,1.898
			c-0.465,0.44-0.903,0.661-1.31,0.661c-0.219,0-0.395-0.089-0.532-0.267c-0.137-0.177-0.203-0.465-0.203-0.867
			c0-0.757,0.17-1.514,0.51-2.271c0.338-0.758,0.706-1.283,1.101-1.574c0.396-0.292,0.859-0.438,1.391-0.438
			c0.219,0,0.488,0.033,0.807,0.098L191.62,156.65z M206.672,152.666c-0.461,0-0.968,0.181-1.523,0.54
			c-0.329,0.213-0.946,0.771-1.851,1.674c0.202-0.673,0.321-1.1,0.36-1.279c0.037-0.181,0.057-0.356,0.057-0.527
			c0-0.142-0.043-0.25-0.127-0.322c-0.087-0.075-0.203-0.112-0.352-0.112c-0.388,0-0.849,0.155-1.38,0.461
			c-0.531,0.308-1.064,0.783-1.602,1.425l0.345,0.354c0.732-0.761,1.228-1.141,1.488-1.141c0.147,0,0.221,0.075,0.221,0.229
			c0,0.141-0.151,0.84-0.451,2.089l-1.603,6.718c-0.124,0.514-0.288,0.872-0.492,1.071c-0.202,0.201-0.529,0.325-0.978,0.371
			l-0.116,0.443c0.892-0.076,1.618-0.114,2.178-0.114c0.545,0,1.29,0.038,2.239,0.114l0.117-0.443
			c-0.814-0.093-1.349-0.215-1.604-0.362c-0.164-0.093-0.247-0.25-0.247-0.468c0-0.112,0.024-0.258,0.07-0.434l0.757-2.922
			c0.426,0.23,0.849,0.346,1.273,0.346c1.079,0,2.064-0.643,2.956-1.93c0.89-1.287,1.335-2.645,1.335-4.071
			c0-0.572-0.104-1.001-0.31-1.285C207.228,152.809,206.973,152.666,206.672,152.666z M205.685,158.103
			c-0.532,1.104-1.152,1.656-1.861,1.656c-0.488,0-0.965-0.233-1.431-0.7l0.471-1.921c0.183-0.755,0.376-1.288,0.582-1.593
			c0.29-0.427,0.707-0.854,1.255-1.284c0.354-0.279,0.671-0.417,0.954-0.417c0.254,0,0.456,0.086,0.605,0.262
			c0.149,0.174,0.225,0.429,0.225,0.765C206.486,155.922,206.219,157,205.685,158.103z M229.082,155.149v0.822h23.896v-0.822
			H229.082z M215.094,147.64l-0.195,0.247c1.517,0.266,2.599,0.851,3.245,1.753s0.972,2.229,0.979,3.975
			c-0.372-0.543-0.832-0.814-1.381-0.814c-0.938,0-1.82,0.552-2.643,1.654c-0.824,1.103-1.234,2.304-1.234,3.606
			c0,0.62,0.178,1.157,0.534,1.614c0.358,0.457,0.869,0.685,1.536,0.685c1.24,0,2.277-0.641,3.109-1.924
			c0.837-1.283,1.255-2.866,1.255-4.755C220.299,149.919,218.564,147.904,215.094,147.64z M218.175,158.47
			c-0.42,0.816-0.938,1.226-1.558,1.226c-0.408,0-0.719-0.231-0.93-0.695c-0.214-0.464-0.32-1.022-0.32-1.677
			c0-0.957,0.199-1.855,0.598-2.699s0.923-1.267,1.572-1.267c0.425,0,0.741,0.234,0.951,0.704c0.209,0.469,0.313,1.066,0.313,1.792
			C218.802,156.78,218.594,157.652,218.175,158.47z M100.596,152.685c-1.328,0-2.438,0.652-3.329,1.956
			c-0.708,1.051-1.063,2.195-1.063,3.435c0,0.714,0.192,1.278,0.58,1.691c0.387,0.412,0.896,0.619,1.527,0.619
			c1.026,0,2.001-0.521,2.921-1.563c0.92-1.043,1.381-2.218,1.381-3.527c0-0.82-0.191-1.46-0.575-1.921
			C101.656,152.915,101.175,152.685,100.596,152.685z M100.322,158.774c-0.408,0.615-0.859,0.921-1.355,0.921
			c-0.354,0-0.637-0.161-0.849-0.487c-0.289-0.442-0.434-1.048-0.434-1.813c0-1.264,0.235-2.252,0.704-2.97
			c0.468-0.718,0.955-1.077,1.456-1.077c0.36,0,0.659,0.188,0.898,0.567c0.239,0.377,0.358,1.01,0.358,1.893
			C101.1,156.99,100.841,157.978,100.322,158.774z M113.045,151.356c1.116,0,2.175-0.472,3.177-1.416l-0.265-0.326
			c-0.708,0.637-1.274,0.954-1.699,0.954c-0.372,0-0.88-0.129-1.523-0.389c-0.442-0.178-0.743-0.266-0.903-0.266
			c-0.377,0-0.567,0.177-0.567,0.532c0,0.318,0.192,0.549,0.575,0.694C112.225,151.284,112.626,151.356,113.045,151.356z
			 M115.179,159.288c-0.136,0.089-0.254,0.134-0.354,0.134c-0.065,0-0.124-0.03-0.177-0.089c-0.053-0.06-0.08-0.146-0.08-0.258
			c0-0.247,0.244-1.271,0.734-3.067l0.832-3.093h-1.26l-0.963,3.637c-0.189,0.696-0.586,1.318-1.194,1.864
			c-0.607,0.546-1.076,0.819-1.406,0.819c-0.094,0-0.181-0.045-0.26-0.134c-0.08-0.087-0.12-0.194-0.12-0.318
			c0-0.201,0.189-1.019,0.567-2.456c0.425-1.595,0.636-2.596,0.636-3.003c0-0.22-0.045-0.381-0.133-0.484
			c-0.087-0.104-0.203-0.155-0.345-0.155c-0.254,0-0.588,0.112-1.004,0.333c-0.417,0.221-1.02,0.687-1.811,1.394l0.39,0.31
			c0.443-0.419,0.755-0.683,0.938-0.792c0.183-0.109,0.328-0.164,0.434-0.164c0.118,0,0.177,0.084,0.177,0.248
			c0,0.284-0.198,1.138-0.594,2.562c-0.313,1.122-0.507,1.871-0.584,2.244c-0.053,0.265-0.08,0.514-0.08,0.744
			c0,0.294,0.06,0.511,0.177,0.646c0.118,0.137,0.28,0.203,0.486,0.203c0.378,0,0.823-0.149,1.336-0.45
			c0.773-0.455,1.422-0.983,1.947-1.587c-0.127,0.514-0.192,0.925-0.192,1.232c0,0.265,0.067,0.47,0.2,0.614
			s0.293,0.218,0.482,0.218c0.561,0,1.434-0.617,2.619-1.852l-0.291-0.326C115.742,158.811,115.373,159.153,115.179,159.288z
			 M149.624,152.685c-1.328,0-2.438,0.652-3.328,1.956c-0.708,1.051-1.063,2.195-1.063,3.435c0,0.714,0.193,1.278,0.58,1.691
			c0.387,0.412,0.896,0.619,1.527,0.619c1.027,0,2-0.521,2.921-1.563c0.921-1.043,1.381-2.218,1.381-3.527
			c0-0.82-0.191-1.46-0.574-1.921C150.683,152.915,150.202,152.685,149.624,152.685z M149.35,158.774
			c-0.407,0.615-0.858,0.921-1.354,0.921c-0.355,0-0.638-0.161-0.85-0.487c-0.291-0.442-0.434-1.048-0.434-1.813
			c0-1.264,0.234-2.252,0.704-2.97s0.955-1.077,1.457-1.077c0.36,0,0.659,0.188,0.898,0.567c0.239,0.377,0.359,1.01,0.359,1.893
			C150.128,156.99,149.869,157.978,149.35,158.774z M166.791,159.413c-0.172,0-0.257-0.117-0.257-0.348
			c0-0.247,0.241-1.268,0.726-3.063l0.842-3.088h-1.257l-3.679,5.842l-0.605-5.507c-0.042-0.377-0.216-0.567-0.522-0.567
			c-0.648,0-1.596,0.576-2.841,1.728l0.39,0.31c0.679-0.684,1.194-1.026,1.549-1.026c0.146,0,0.222,0.073,0.222,0.222
			c0,0.259-0.258,1.015-0.77,2.265c-0.514,1.252-0.903,2.035-1.169,2.347c-0.265,0.314-0.529,0.469-0.788,0.469
			c-0.101,0-0.269-0.044-0.504-0.131c-0.213-0.09-0.388-0.134-0.523-0.134c-0.213,0-0.39,0.08-0.531,0.239s-0.213,0.345-0.213,0.558
			c0,0.22,0.082,0.412,0.244,0.581c0.162,0.168,0.4,0.251,0.714,0.251c0.633,0,1.206-0.258,1.724-0.777
			c0.518-0.521,1.188-1.977,2.016-4.366l0.569,5.135h0.67l3.595-5.763l-0.535,2.065c-0.412,1.572-0.615,2.559-0.615,2.954
			c0,0.265,0.073,0.47,0.22,0.614c0.15,0.145,0.303,0.218,0.462,0.218c0.566,0,1.441-0.617,2.623-1.85l-0.292-0.327
			C167.49,159.029,167.004,159.413,166.791,159.413z M138.864,158.898c-0.364,0.331-0.628,0.496-0.786,0.496
			c-0.313,0-0.504-0.4-0.576-1.204l-0.355-4.258c-0.046-0.52-0.109-0.857-0.189-1.013c-0.08-0.156-0.247-0.235-0.5-0.235
			c-0.673,0-1.631,0.576-2.878,1.728l0.38,0.31c0.703-0.703,1.234-1.054,1.593-1.054c0.164,0,0.247,0.092,0.247,0.275
			c0,0.142-0.284,0.876-0.851,2.202c-0.568,1.33-0.993,2.136-1.277,2.418c-0.283,0.284-0.571,0.426-0.866,0.426
			c-0.122,0-0.291-0.041-0.502-0.123c-0.218-0.089-0.383-0.134-0.495-0.134c-0.212,0-0.393,0.076-0.543,0.226
			c-0.148,0.15-0.225,0.345-0.225,0.58c0,0.248,0.09,0.447,0.271,0.599c0.18,0.15,0.41,0.225,0.694,0.225
			c0.66,0,1.269-0.313,1.829-0.938c0.561-0.625,1.265-2.077,2.112-4.355l0.361,3.7c0.071,0.721,0.19,1.167,0.359,1.337
			c0.169,0.172,0.345,0.257,0.529,0.257c0.662,0,1.55-0.599,2.661-1.798l-0.229-0.318
			C139.491,158.343,139.236,158.563,138.864,158.898z"/>
	</g>
</g>
</svg>
